<?xml version="1.0" encoding="UTF-8" standalone="no"?>
<!DOCTYPE svg PUBLIC "-//W3C//DTD SVG 1.1//EN" "http://www.w3.org/Graphics/SVG/1.1/DTD/svg11.dtd">
<svg width="100%" height="100%" viewBox="0 0 98 275" version="1.1" xmlns="http://www.w3.org/2000/svg" xmlns:xlink="http://www.w3.org/1999/xlink" xml:space="preserve" xmlns:serif="http://www.serif.com/" style="fill-rule:evenodd;clip-rule:evenodd;stroke-miterlimit:10;">
    <g id="Plan-de-travail2" serif:id="Plan de travail2" transform="matrix(1,0,0,0.949458,-564.491,-201.44)">
        <rect x="564.491" y="212.163" width="97.017" height="288.965" style="fill:none;"/>
        <clipPath id="_clip1">
            <rect x="564.491" y="212.163" width="97.017" height="288.965"/>
        </clipPath>
        <g clip-path="url(#_clip1)">
            <g transform="matrix(1,0,0,1.05323,-26.5086,-266.641)">
                <g>
                    <path d="M639.65,731.53L593.48,488.17L687.3,488.17L639.65,731.53" style="fill-rule:nonzero;stroke:white;stroke-width:0.5px;"/>
                </g>
                <path d="M639.65,517.18L639.65,730.53" style="fill:none;fill-rule:nonzero;stroke:white;stroke-width:0.5px;"/>
                <path d="M686.32,487.28L639.66,517.18C639.61,517.22 639.71,517.26 639.66,517.22L592.99,487.28C592.9,487.21 592.96,487.28 593.07,487.28L639.66,455.59L686.24,487.28C686.35,487.28 686.4,487.2 686.32,487.28Z" style="fill-rule:nonzero;stroke:white;stroke-width:0.5px;"/>
            </g>
        </g>
    </g>
</svg>
